<mxfile host="app.diagrams.net" agent="Mozilla/5.0 (Windows NT 10.0; Win64; x64) AppleWebKit/537.36 (KHTML, like Gecko) Chrome/132.0.0.0 Safari/537.36" version="26.0.6">
  <diagram id="C5RBs43oDa-KdzZeNtuy" name="Page-1">
    <mxGraphModel dx="773" dy="743" grid="1" gridSize="10" guides="1" tooltips="1" connect="1" arrows="1" fold="1" page="1" pageScale="1" pageWidth="827" pageHeight="1169" math="0" shadow="0">
      <root>
        <mxCell id="WIyWlLk6GJQsqaUBKTNV-0" />
        <mxCell id="WIyWlLk6GJQsqaUBKTNV-1" parent="WIyWlLk6GJQsqaUBKTNV-0" />
        <mxCell id="WIyWlLk6GJQsqaUBKTNV-2" value="" style="rounded=0;html=1;jettySize=auto;orthogonalLoop=1;fontSize=11;endArrow=block;endFill=0;endSize=8;strokeWidth=1;shadow=0;labelBackgroundColor=none;edgeStyle=orthogonalEdgeStyle;entryX=0;entryY=0.5;entryDx=0;entryDy=0;" parent="WIyWlLk6GJQsqaUBKTNV-1" source="WIyWlLk6GJQsqaUBKTNV-3" target="WIyWlLk6GJQsqaUBKTNV-7" edge="1">
          <mxGeometry relative="1" as="geometry">
            <mxPoint x="120" y="170" as="targetPoint" />
          </mxGeometry>
        </mxCell>
        <mxCell id="WIyWlLk6GJQsqaUBKTNV-3" value="&lt;b&gt;&lt;i&gt;CÓDIGO FUENTE&lt;/i&gt;&lt;/b&gt;" style="rounded=1;whiteSpace=wrap;html=1;fontSize=12;glass=0;strokeWidth=1;shadow=0;" parent="WIyWlLk6GJQsqaUBKTNV-1" vertex="1">
          <mxGeometry x="60" y="80" width="120" height="70" as="geometry" />
        </mxCell>
        <mxCell id="WIyWlLk6GJQsqaUBKTNV-7" value="&lt;b&gt;&lt;i&gt;COMPILADOR&lt;/i&gt;&lt;/b&gt;" style="rounded=1;whiteSpace=wrap;html=1;fontSize=12;glass=0;strokeWidth=1;shadow=0;" parent="WIyWlLk6GJQsqaUBKTNV-1" vertex="1">
          <mxGeometry x="210" y="80" width="120" height="70" as="geometry" />
        </mxCell>
        <mxCell id="VZwqyYmy66zpxs_3sMK4-1" value="&lt;b&gt;EJECUTOR EN PARALELO&lt;/b&gt;" style="rounded=1;whiteSpace=wrap;html=1;fontSize=12;glass=0;strokeWidth=1;shadow=0;" vertex="1" parent="WIyWlLk6GJQsqaUBKTNV-1">
          <mxGeometry x="360" y="80" width="120" height="70" as="geometry" />
        </mxCell>
        <mxCell id="VZwqyYmy66zpxs_3sMK4-4" value="" style="rounded=0;html=1;jettySize=auto;orthogonalLoop=1;fontSize=11;endArrow=block;endFill=0;endSize=8;strokeWidth=1;shadow=0;labelBackgroundColor=none;edgeStyle=orthogonalEdgeStyle;entryX=0;entryY=0.5;entryDx=0;entryDy=0;" edge="1" parent="WIyWlLk6GJQsqaUBKTNV-1">
          <mxGeometry relative="1" as="geometry">
            <mxPoint x="331" y="116" as="sourcePoint" />
            <mxPoint x="361" y="116" as="targetPoint" />
          </mxGeometry>
        </mxCell>
        <mxCell id="VZwqyYmy66zpxs_3sMK4-5" value="&lt;b&gt;&lt;i&gt;CPU / GPU&lt;/i&gt;&lt;/b&gt;" style="rounded=1;whiteSpace=wrap;html=1;fontSize=12;glass=0;strokeWidth=1;shadow=0;" vertex="1" parent="WIyWlLk6GJQsqaUBKTNV-1">
          <mxGeometry x="509" y="80" width="120" height="70" as="geometry" />
        </mxCell>
        <mxCell id="VZwqyYmy66zpxs_3sMK4-6" value="" style="rounded=0;html=1;jettySize=auto;orthogonalLoop=1;fontSize=11;endArrow=block;endFill=0;endSize=8;strokeWidth=1;shadow=0;labelBackgroundColor=none;edgeStyle=orthogonalEdgeStyle;entryX=0;entryY=0.5;entryDx=0;entryDy=0;" edge="1" parent="WIyWlLk6GJQsqaUBKTNV-1">
          <mxGeometry relative="1" as="geometry">
            <mxPoint x="480" y="116" as="sourcePoint" />
            <mxPoint x="510" y="116" as="targetPoint" />
          </mxGeometry>
        </mxCell>
        <mxCell id="VZwqyYmy66zpxs_3sMK4-7" value="&lt;i&gt;&lt;b&gt;SALIDA&lt;/b&gt;&lt;/i&gt;" style="rounded=1;whiteSpace=wrap;html=1;fontSize=12;glass=0;strokeWidth=1;shadow=0;" vertex="1" parent="WIyWlLk6GJQsqaUBKTNV-1">
          <mxGeometry x="658" y="80" width="120" height="70" as="geometry" />
        </mxCell>
        <mxCell id="VZwqyYmy66zpxs_3sMK4-8" value="" style="rounded=0;html=1;jettySize=auto;orthogonalLoop=1;fontSize=11;endArrow=block;endFill=0;endSize=8;strokeWidth=1;shadow=0;labelBackgroundColor=none;edgeStyle=orthogonalEdgeStyle;entryX=0;entryY=0.5;entryDx=0;entryDy=0;" edge="1" parent="WIyWlLk6GJQsqaUBKTNV-1">
          <mxGeometry relative="1" as="geometry">
            <mxPoint x="629" y="114" as="sourcePoint" />
            <mxPoint x="659" y="114" as="targetPoint" />
          </mxGeometry>
        </mxCell>
        <mxCell id="VZwqyYmy66zpxs_3sMK4-9" value="" style="rounded=0;html=1;jettySize=auto;orthogonalLoop=1;fontSize=11;endArrow=block;endFill=0;endSize=8;strokeWidth=1;shadow=0;labelBackgroundColor=none;edgeStyle=orthogonalEdgeStyle;entryX=0;entryY=0.5;entryDx=0;entryDy=0;" edge="1" parent="WIyWlLk6GJQsqaUBKTNV-1" source="VZwqyYmy66zpxs_3sMK4-10" target="VZwqyYmy66zpxs_3sMK4-11">
          <mxGeometry relative="1" as="geometry">
            <mxPoint x="120" y="290" as="targetPoint" />
          </mxGeometry>
        </mxCell>
        <mxCell id="VZwqyYmy66zpxs_3sMK4-10" value="&lt;b&gt;&lt;i&gt;ANÁLISIS LÉXICO&lt;/i&gt;&lt;/b&gt;" style="rounded=1;whiteSpace=wrap;html=1;fontSize=12;glass=0;strokeWidth=1;shadow=0;" vertex="1" parent="WIyWlLk6GJQsqaUBKTNV-1">
          <mxGeometry x="60" y="200" width="120" height="70" as="geometry" />
        </mxCell>
        <mxCell id="VZwqyYmy66zpxs_3sMK4-11" value="&lt;b&gt;&lt;i&gt;OPTIMIZACIÓN INTERMAEDIA&lt;/i&gt;&lt;/b&gt;" style="rounded=1;whiteSpace=wrap;html=1;fontSize=12;glass=0;strokeWidth=1;shadow=0;" vertex="1" parent="WIyWlLk6GJQsqaUBKTNV-1">
          <mxGeometry x="210" y="200" width="120" height="70" as="geometry" />
        </mxCell>
        <mxCell id="VZwqyYmy66zpxs_3sMK4-12" value="&lt;b&gt;&lt;i&gt;GENERACIÓN DE CÓDIGO MÁQUINA&lt;/i&gt;&lt;/b&gt;" style="rounded=1;whiteSpace=wrap;html=1;fontSize=12;glass=0;strokeWidth=1;shadow=0;" vertex="1" parent="WIyWlLk6GJQsqaUBKTNV-1">
          <mxGeometry x="360" y="200" width="120" height="70" as="geometry" />
        </mxCell>
        <mxCell id="VZwqyYmy66zpxs_3sMK4-13" value="" style="rounded=0;html=1;jettySize=auto;orthogonalLoop=1;fontSize=11;endArrow=block;endFill=0;endSize=8;strokeWidth=1;shadow=0;labelBackgroundColor=none;edgeStyle=orthogonalEdgeStyle;entryX=0;entryY=0.5;entryDx=0;entryDy=0;" edge="1" parent="WIyWlLk6GJQsqaUBKTNV-1">
          <mxGeometry relative="1" as="geometry">
            <mxPoint x="331" y="236" as="sourcePoint" />
            <mxPoint x="361" y="236" as="targetPoint" />
          </mxGeometry>
        </mxCell>
        <mxCell id="VZwqyYmy66zpxs_3sMK4-19" value="" style="rounded=0;html=1;jettySize=auto;orthogonalLoop=1;fontSize=11;endArrow=block;endFill=0;endSize=8;strokeWidth=1;shadow=0;labelBackgroundColor=none;edgeStyle=orthogonalEdgeStyle;entryX=0;entryY=0.5;entryDx=0;entryDy=0;" edge="1" parent="WIyWlLk6GJQsqaUBKTNV-1" source="VZwqyYmy66zpxs_3sMK4-20" target="VZwqyYmy66zpxs_3sMK4-21">
          <mxGeometry relative="1" as="geometry">
            <mxPoint x="120" y="520" as="targetPoint" />
          </mxGeometry>
        </mxCell>
        <mxCell id="VZwqyYmy66zpxs_3sMK4-20" value="&lt;b&gt;&lt;i&gt;ENTRADA&lt;/i&gt;&lt;/b&gt;" style="rounded=1;whiteSpace=wrap;html=1;fontSize=12;glass=0;strokeWidth=1;shadow=0;" vertex="1" parent="WIyWlLk6GJQsqaUBKTNV-1">
          <mxGeometry x="60" y="430" width="120" height="70" as="geometry" />
        </mxCell>
        <mxCell id="VZwqyYmy66zpxs_3sMK4-21" value="&lt;b&gt;&lt;i&gt;DUP&lt;/i&gt;&lt;/b&gt;" style="rounded=1;whiteSpace=wrap;html=1;fontSize=12;glass=0;strokeWidth=1;shadow=0;" vertex="1" parent="WIyWlLk6GJQsqaUBKTNV-1">
          <mxGeometry x="210" y="430" width="120" height="70" as="geometry" />
        </mxCell>
        <mxCell id="VZwqyYmy66zpxs_3sMK4-22" value="&lt;b&gt;&lt;i&gt;OPR&amp;nbsp;&lt;/i&gt;&lt;/b&gt;&lt;div&gt;&lt;b&gt;&lt;i&gt;(PARALELO)&lt;/i&gt;&lt;/b&gt;&lt;/div&gt;" style="rounded=1;whiteSpace=wrap;html=1;fontSize=12;glass=0;strokeWidth=1;shadow=0;" vertex="1" parent="WIyWlLk6GJQsqaUBKTNV-1">
          <mxGeometry x="360" y="430" width="120" height="70" as="geometry" />
        </mxCell>
        <mxCell id="VZwqyYmy66zpxs_3sMK4-23" value="" style="rounded=0;html=1;jettySize=auto;orthogonalLoop=1;fontSize=11;endArrow=block;endFill=0;endSize=8;strokeWidth=1;shadow=0;labelBackgroundColor=none;edgeStyle=orthogonalEdgeStyle;entryX=0;entryY=0.5;entryDx=0;entryDy=0;" edge="1" parent="WIyWlLk6GJQsqaUBKTNV-1">
          <mxGeometry relative="1" as="geometry">
            <mxPoint x="331" y="466" as="sourcePoint" />
            <mxPoint x="361" y="466" as="targetPoint" />
          </mxGeometry>
        </mxCell>
        <mxCell id="VZwqyYmy66zpxs_3sMK4-24" value="&lt;b&gt;&lt;i&gt;CON&lt;/i&gt;&lt;/b&gt;" style="rounded=1;whiteSpace=wrap;html=1;fontSize=12;glass=0;strokeWidth=1;shadow=0;" vertex="1" parent="WIyWlLk6GJQsqaUBKTNV-1">
          <mxGeometry x="509" y="430" width="120" height="70" as="geometry" />
        </mxCell>
        <mxCell id="VZwqyYmy66zpxs_3sMK4-25" value="" style="rounded=0;html=1;jettySize=auto;orthogonalLoop=1;fontSize=11;endArrow=block;endFill=0;endSize=8;strokeWidth=1;shadow=0;labelBackgroundColor=none;edgeStyle=orthogonalEdgeStyle;entryX=0;entryY=0.5;entryDx=0;entryDy=0;" edge="1" parent="WIyWlLk6GJQsqaUBKTNV-1">
          <mxGeometry relative="1" as="geometry">
            <mxPoint x="480" y="466" as="sourcePoint" />
            <mxPoint x="510" y="466" as="targetPoint" />
          </mxGeometry>
        </mxCell>
        <mxCell id="VZwqyYmy66zpxs_3sMK4-26" value="&lt;b&gt;&lt;i&gt;SALIDA&lt;/i&gt;&lt;/b&gt;" style="rounded=1;whiteSpace=wrap;html=1;fontSize=12;glass=0;strokeWidth=1;shadow=0;" vertex="1" parent="WIyWlLk6GJQsqaUBKTNV-1">
          <mxGeometry x="658" y="430" width="120" height="70" as="geometry" />
        </mxCell>
        <mxCell id="VZwqyYmy66zpxs_3sMK4-27" value="" style="rounded=0;html=1;jettySize=auto;orthogonalLoop=1;fontSize=11;endArrow=block;endFill=0;endSize=8;strokeWidth=1;shadow=0;labelBackgroundColor=none;edgeStyle=orthogonalEdgeStyle;entryX=0;entryY=0.5;entryDx=0;entryDy=0;" edge="1" parent="WIyWlLk6GJQsqaUBKTNV-1">
          <mxGeometry relative="1" as="geometry">
            <mxPoint x="629" y="464" as="sourcePoint" />
            <mxPoint x="659" y="464" as="targetPoint" />
          </mxGeometry>
        </mxCell>
        <mxCell id="VZwqyYmy66zpxs_3sMK4-33" style="edgeStyle=orthogonalEdgeStyle;rounded=0;orthogonalLoop=1;jettySize=auto;html=1;exitX=1;exitY=0.5;exitDx=0;exitDy=0;" edge="1" parent="WIyWlLk6GJQsqaUBKTNV-1" source="VZwqyYmy66zpxs_3sMK4-29" target="VZwqyYmy66zpxs_3sMK4-30">
          <mxGeometry relative="1" as="geometry" />
        </mxCell>
        <mxCell id="VZwqyYmy66zpxs_3sMK4-29" value="&lt;b&gt;&lt;i&gt;CPU&lt;/i&gt;&lt;/b&gt;" style="rounded=1;whiteSpace=wrap;html=1;fontSize=12;glass=0;strokeWidth=1;shadow=0;" vertex="1" parent="WIyWlLk6GJQsqaUBKTNV-1">
          <mxGeometry x="60" y="540" width="120" height="70" as="geometry" />
        </mxCell>
        <mxCell id="VZwqyYmy66zpxs_3sMK4-34" style="edgeStyle=orthogonalEdgeStyle;rounded=0;orthogonalLoop=1;jettySize=auto;html=1;exitX=0;exitY=0.5;exitDx=0;exitDy=0;entryX=1;entryY=0.5;entryDx=0;entryDy=0;" edge="1" parent="WIyWlLk6GJQsqaUBKTNV-1" source="VZwqyYmy66zpxs_3sMK4-30" target="VZwqyYmy66zpxs_3sMK4-29">
          <mxGeometry relative="1" as="geometry" />
        </mxCell>
        <mxCell id="VZwqyYmy66zpxs_3sMK4-35" style="edgeStyle=orthogonalEdgeStyle;rounded=0;orthogonalLoop=1;jettySize=auto;html=1;exitX=1;exitY=0.5;exitDx=0;exitDy=0;entryX=0;entryY=0.5;entryDx=0;entryDy=0;" edge="1" parent="WIyWlLk6GJQsqaUBKTNV-1" source="VZwqyYmy66zpxs_3sMK4-30" target="VZwqyYmy66zpxs_3sMK4-31">
          <mxGeometry relative="1" as="geometry" />
        </mxCell>
        <mxCell id="VZwqyYmy66zpxs_3sMK4-30" value="&lt;b&gt;&lt;i&gt;MEMORIA UNIFICADA&lt;/i&gt;&lt;/b&gt;" style="rounded=1;whiteSpace=wrap;html=1;fontSize=12;glass=0;strokeWidth=1;shadow=0;" vertex="1" parent="WIyWlLk6GJQsqaUBKTNV-1">
          <mxGeometry x="210" y="540" width="120" height="70" as="geometry" />
        </mxCell>
        <mxCell id="VZwqyYmy66zpxs_3sMK4-36" style="edgeStyle=orthogonalEdgeStyle;rounded=0;orthogonalLoop=1;jettySize=auto;html=1;exitX=0;exitY=0.5;exitDx=0;exitDy=0;" edge="1" parent="WIyWlLk6GJQsqaUBKTNV-1" source="VZwqyYmy66zpxs_3sMK4-31" target="VZwqyYmy66zpxs_3sMK4-30">
          <mxGeometry relative="1" as="geometry" />
        </mxCell>
        <mxCell id="VZwqyYmy66zpxs_3sMK4-31" value="&lt;b&gt;&lt;i&gt;GPU&lt;/i&gt;&lt;/b&gt;" style="rounded=1;whiteSpace=wrap;html=1;fontSize=12;glass=0;strokeWidth=1;shadow=0;" vertex="1" parent="WIyWlLk6GJQsqaUBKTNV-1">
          <mxGeometry x="360" y="540" width="120" height="70" as="geometry" />
        </mxCell>
        <mxCell id="VZwqyYmy66zpxs_3sMK4-37" style="edgeStyle=orthogonalEdgeStyle;rounded=0;orthogonalLoop=1;jettySize=auto;html=1;exitX=1;exitY=0.5;exitDx=0;exitDy=0;" edge="1" parent="WIyWlLk6GJQsqaUBKTNV-1" source="VZwqyYmy66zpxs_3sMK4-38" target="VZwqyYmy66zpxs_3sMK4-41">
          <mxGeometry relative="1" as="geometry" />
        </mxCell>
        <mxCell id="VZwqyYmy66zpxs_3sMK4-38" value="&lt;b&gt;&lt;i&gt;CPU&lt;/i&gt;&lt;/b&gt;" style="rounded=1;whiteSpace=wrap;html=1;fontSize=12;glass=0;strokeWidth=1;shadow=0;" vertex="1" parent="WIyWlLk6GJQsqaUBKTNV-1">
          <mxGeometry x="60" y="320" width="120" height="70" as="geometry" />
        </mxCell>
        <mxCell id="VZwqyYmy66zpxs_3sMK4-39" style="edgeStyle=orthogonalEdgeStyle;rounded=0;orthogonalLoop=1;jettySize=auto;html=1;exitX=0;exitY=0.5;exitDx=0;exitDy=0;entryX=1;entryY=0.5;entryDx=0;entryDy=0;" edge="1" parent="WIyWlLk6GJQsqaUBKTNV-1" source="VZwqyYmy66zpxs_3sMK4-41" target="VZwqyYmy66zpxs_3sMK4-38">
          <mxGeometry relative="1" as="geometry" />
        </mxCell>
        <mxCell id="VZwqyYmy66zpxs_3sMK4-40" style="edgeStyle=orthogonalEdgeStyle;rounded=0;orthogonalLoop=1;jettySize=auto;html=1;exitX=1;exitY=0.5;exitDx=0;exitDy=0;entryX=0;entryY=0.5;entryDx=0;entryDy=0;" edge="1" parent="WIyWlLk6GJQsqaUBKTNV-1" source="VZwqyYmy66zpxs_3sMK4-41" target="VZwqyYmy66zpxs_3sMK4-43">
          <mxGeometry relative="1" as="geometry" />
        </mxCell>
        <mxCell id="VZwqyYmy66zpxs_3sMK4-41" value="&lt;b&gt;&lt;i&gt;MEMORIA UNIFICADA&lt;/i&gt;&lt;/b&gt;" style="rounded=1;whiteSpace=wrap;html=1;fontSize=12;glass=0;strokeWidth=1;shadow=0;" vertex="1" parent="WIyWlLk6GJQsqaUBKTNV-1">
          <mxGeometry x="210" y="320" width="120" height="70" as="geometry" />
        </mxCell>
        <mxCell id="VZwqyYmy66zpxs_3sMK4-42" style="edgeStyle=orthogonalEdgeStyle;rounded=0;orthogonalLoop=1;jettySize=auto;html=1;exitX=0;exitY=0.5;exitDx=0;exitDy=0;" edge="1" parent="WIyWlLk6GJQsqaUBKTNV-1" source="VZwqyYmy66zpxs_3sMK4-43" target="VZwqyYmy66zpxs_3sMK4-41">
          <mxGeometry relative="1" as="geometry" />
        </mxCell>
        <mxCell id="VZwqyYmy66zpxs_3sMK4-43" value="&lt;b&gt;&lt;i&gt;GPU&lt;/i&gt;&lt;/b&gt;" style="rounded=1;whiteSpace=wrap;html=1;fontSize=12;glass=0;strokeWidth=1;shadow=0;" vertex="1" parent="WIyWlLk6GJQsqaUBKTNV-1">
          <mxGeometry x="360" y="320" width="120" height="70" as="geometry" />
        </mxCell>
        <mxCell id="VZwqyYmy66zpxs_3sMK4-44" value="" style="rounded=0;html=1;jettySize=auto;orthogonalLoop=1;fontSize=11;endArrow=block;endFill=0;endSize=8;strokeWidth=1;shadow=0;labelBackgroundColor=none;edgeStyle=orthogonalEdgeStyle;entryX=0;entryY=0.5;entryDx=0;entryDy=0;" edge="1" parent="WIyWlLk6GJQsqaUBKTNV-1" source="VZwqyYmy66zpxs_3sMK4-45" target="VZwqyYmy66zpxs_3sMK4-46">
          <mxGeometry relative="1" as="geometry">
            <mxPoint x="120" y="810" as="targetPoint" />
          </mxGeometry>
        </mxCell>
        <mxCell id="VZwqyYmy66zpxs_3sMK4-45" value="&lt;b&gt;&lt;i&gt;ENTRADA DE CÓDIGO FUENTE&lt;/i&gt;&lt;/b&gt;" style="rounded=1;whiteSpace=wrap;html=1;fontSize=12;glass=0;strokeWidth=1;shadow=0;" vertex="1" parent="WIyWlLk6GJQsqaUBKTNV-1">
          <mxGeometry x="60" y="720" width="120" height="70" as="geometry" />
        </mxCell>
        <mxCell id="VZwqyYmy66zpxs_3sMK4-46" value="&lt;b&gt;&lt;i&gt;ANÁLISIS LÉXICO Y SINTÁCTICO&lt;/i&gt;&lt;/b&gt;" style="rounded=1;whiteSpace=wrap;html=1;fontSize=12;glass=0;strokeWidth=1;shadow=0;" vertex="1" parent="WIyWlLk6GJQsqaUBKTNV-1">
          <mxGeometry x="180" y="810" width="120" height="70" as="geometry" />
        </mxCell>
        <mxCell id="VZwqyYmy66zpxs_3sMK4-47" value="&lt;b&gt;ANÁLISIS SEMÁNTICO&lt;/b&gt;" style="rounded=1;whiteSpace=wrap;html=1;fontSize=12;glass=0;strokeWidth=1;shadow=0;" vertex="1" parent="WIyWlLk6GJQsqaUBKTNV-1">
          <mxGeometry x="300" y="900" width="120" height="70" as="geometry" />
        </mxCell>
        <mxCell id="VZwqyYmy66zpxs_3sMK4-48" value="" style="rounded=0;html=1;jettySize=auto;orthogonalLoop=1;fontSize=11;endArrow=block;endFill=0;endSize=8;strokeWidth=1;shadow=0;labelBackgroundColor=none;edgeStyle=orthogonalEdgeStyle;entryX=0;entryY=0.5;entryDx=0;entryDy=0;exitX=0.5;exitY=1;exitDx=0;exitDy=0;" edge="1" parent="WIyWlLk6GJQsqaUBKTNV-1" source="VZwqyYmy66zpxs_3sMK4-46" target="VZwqyYmy66zpxs_3sMK4-47">
          <mxGeometry relative="1" as="geometry">
            <mxPoint x="350" y="830" as="sourcePoint" />
            <mxPoint x="361" y="756" as="targetPoint" />
          </mxGeometry>
        </mxCell>
        <mxCell id="VZwqyYmy66zpxs_3sMK4-49" value="&lt;b&gt;&lt;i&gt;GENEREACIÓN DE CÓDIGO INTERMEDIO&lt;/i&gt;&lt;/b&gt;" style="rounded=1;whiteSpace=wrap;html=1;fontSize=12;glass=0;strokeWidth=1;shadow=0;" vertex="1" parent="WIyWlLk6GJQsqaUBKTNV-1">
          <mxGeometry x="420" y="990" width="120" height="70" as="geometry" />
        </mxCell>
        <mxCell id="VZwqyYmy66zpxs_3sMK4-50" value="" style="rounded=0;html=1;jettySize=auto;orthogonalLoop=1;fontSize=11;endArrow=block;endFill=0;endSize=8;strokeWidth=1;shadow=0;labelBackgroundColor=none;edgeStyle=orthogonalEdgeStyle;entryX=0;entryY=0.5;entryDx=0;entryDy=0;exitX=0.5;exitY=1;exitDx=0;exitDy=0;" edge="1" parent="WIyWlLk6GJQsqaUBKTNV-1" source="VZwqyYmy66zpxs_3sMK4-47" target="VZwqyYmy66zpxs_3sMK4-49">
          <mxGeometry relative="1" as="geometry">
            <mxPoint x="480" y="756" as="sourcePoint" />
            <mxPoint x="510" y="756" as="targetPoint" />
          </mxGeometry>
        </mxCell>
        <mxCell id="VZwqyYmy66zpxs_3sMK4-51" value="&lt;i&gt;&lt;b&gt;OPTIMIZACIÓN DE CÓDIGO&lt;/b&gt;&lt;/i&gt;" style="rounded=1;whiteSpace=wrap;html=1;fontSize=12;glass=0;strokeWidth=1;shadow=0;" vertex="1" parent="WIyWlLk6GJQsqaUBKTNV-1">
          <mxGeometry x="540" y="1080" width="120" height="70" as="geometry" />
        </mxCell>
        <mxCell id="VZwqyYmy66zpxs_3sMK4-52" value="" style="rounded=0;html=1;jettySize=auto;orthogonalLoop=1;fontSize=11;endArrow=block;endFill=0;endSize=8;strokeWidth=1;shadow=0;labelBackgroundColor=none;edgeStyle=orthogonalEdgeStyle;entryX=0;entryY=0.5;entryDx=0;entryDy=0;exitX=0.5;exitY=1;exitDx=0;exitDy=0;" edge="1" parent="WIyWlLk6GJQsqaUBKTNV-1" source="VZwqyYmy66zpxs_3sMK4-49" target="VZwqyYmy66zpxs_3sMK4-51">
          <mxGeometry relative="1" as="geometry">
            <mxPoint x="629" y="754" as="sourcePoint" />
            <mxPoint x="659" y="754" as="targetPoint" />
          </mxGeometry>
        </mxCell>
        <mxCell id="VZwqyYmy66zpxs_3sMK4-55" value="&lt;i&gt;&lt;b&gt;GENERACIÓN DE CÓDIGO FINAL&lt;/b&gt;&lt;/i&gt;" style="rounded=1;whiteSpace=wrap;html=1;fontSize=12;glass=0;strokeWidth=1;shadow=0;" vertex="1" parent="WIyWlLk6GJQsqaUBKTNV-1">
          <mxGeometry x="660" y="1169" width="120" height="70" as="geometry" />
        </mxCell>
        <mxCell id="VZwqyYmy66zpxs_3sMK4-56" value="" style="rounded=0;html=1;jettySize=auto;orthogonalLoop=1;fontSize=11;endArrow=block;endFill=0;endSize=8;strokeWidth=1;shadow=0;labelBackgroundColor=none;edgeStyle=orthogonalEdgeStyle;entryX=0;entryY=0.5;entryDx=0;entryDy=0;exitX=0.5;exitY=1;exitDx=0;exitDy=0;" edge="1" parent="WIyWlLk6GJQsqaUBKTNV-1" source="VZwqyYmy66zpxs_3sMK4-51" target="VZwqyYmy66zpxs_3sMK4-55">
          <mxGeometry relative="1" as="geometry">
            <mxPoint x="560" y="1200" as="sourcePoint" />
            <mxPoint x="620" y="1255" as="targetPoint" />
          </mxGeometry>
        </mxCell>
        <mxCell id="VZwqyYmy66zpxs_3sMK4-57" value="&lt;i&gt;&lt;b&gt;MONSTAJE Y ENLACE&lt;/b&gt;&lt;/i&gt;" style="rounded=1;whiteSpace=wrap;html=1;fontSize=12;glass=0;strokeWidth=1;shadow=0;" vertex="1" parent="WIyWlLk6GJQsqaUBKTNV-1">
          <mxGeometry x="778" y="1260" width="120" height="70" as="geometry" />
        </mxCell>
        <mxCell id="VZwqyYmy66zpxs_3sMK4-58" value="" style="rounded=0;html=1;jettySize=auto;orthogonalLoop=1;fontSize=11;endArrow=block;endFill=0;endSize=8;strokeWidth=1;shadow=0;labelBackgroundColor=none;edgeStyle=orthogonalEdgeStyle;entryX=0;entryY=0.5;entryDx=0;entryDy=0;exitX=0.5;exitY=1;exitDx=0;exitDy=0;" edge="1" parent="WIyWlLk6GJQsqaUBKTNV-1" source="VZwqyYmy66zpxs_3sMK4-55" target="VZwqyYmy66zpxs_3sMK4-57">
          <mxGeometry relative="1" as="geometry">
            <mxPoint x="610" y="1160" as="sourcePoint" />
            <mxPoint x="670" y="1214" as="targetPoint" />
          </mxGeometry>
        </mxCell>
      </root>
    </mxGraphModel>
  </diagram>
</mxfile>
